# xmcd
#
# Track frame offsets:
#	150
#	14245
#	26100
#	38442
#	53510
#	65155
#	77425
#	91430
#	103935
#	115790
#
# Disc length: 1715 seconds
#
# Revision: 0
# Processed by: cddbd v1.5.2PL0 Copyright (c) Steve Scherf et al.
# Submitted via: dBpowerAMP V4.0
#
DISCID=7d06b10a
DTITLE=Johnny Otis - Blues' Legend
DYEAR=1900
DGENRE=Blues
TTITLE0=The Significant Monkey
TTITLE1=Country Gril
TTITLE2=Cold Shot
TTITLE3=Sitting Here Along
TTITLE4=CC Rider
TTITLE5=I Believe I'll Go Back Home
TTITLE6=Bye Bye Baby
TTITLE7=Hight Heal Sneakers
TTITLE8=You Better Look Out
TTITLE9=Going Back To LA
EXTD=
EXTT0=
EXTT1=
EXTT2=
EXTT3=
EXTT4=
EXTT5=
EXTT6=
EXTT7=
EXTT8=
EXTT9=
PLAYORDER=
